<svg width="960" height="600" version="1.1" xmlns="http://www.w3.org/2000/svg"><g></g><g transform="translate(480,300)scale(1.0389610528945923,1.0389610528945923)"><text text-anchor="middle" transform="translate(14,136)rotate(0)scale(1,1)" style="font-size: 100px; font-family: pact; fill: rgb(57, 59, 121);"></text><text text-anchor="middle" transform="translate(31,82)rotate(-59.99999955470795)scale(0.9999999865388264,0.9999999865388264)" style="font-size: 92px; font-family: pact; fill: rgb(82, 84, 163);">ONF</text><text text-anchor="middle" transform="translate(61,-104)rotate(-30.000000445292052)scale(0.9999999865388264,0.9999999865388264)" style="font-size: 69px; font-family: pact; fill: rgb(107, 110, 207);">Cmder</text><text text-anchor="middle" transform="translate(-196,-30)rotate(59.99999955470795)scale(0.9999999865388264,0.9999999865388264)" style="font-size: 69px; font-family: pact; fill: rgb(156, 158, 222);">FME</text><text text-anchor="middle" transform="translate(142,112)rotate(-30.00000044529205)scale(0.9999999865388264,0.9999999865388264)" style="font-size: 66px; font-family: pact; fill: rgb(99, 121, 57);">Esri</text><text text-anchor="middle" transform="translate(-290,-22)rotate(0)scale(1,1)" style="font-size: 65px; font-family: pact; fill: rgb(140, 162, 82);">AJAX</text><text text-anchor="middle" transform="translate(150,11)rotate(59.999999554707955)scale(0.9999999865388264,0.9999999865388264)" style="font-size: 64px; font-family: pact; fill: rgb(181, 207, 107);">ArcGisPro</text><text text-anchor="middle" transform="translate(60,124)rotate(-59.999999554707955)scale(0.9999999865388264,0.9999999865388264)" style="font-size: 61px; font-family: pact; fill: rgb(206, 219, 156);">SIGWEB</text><text text-anchor="middle" transform="translate(-193,59)rotate(0)scale(1,1)" style="font-size: 60px; font-family: pact; fill: rgb(140, 109, 49);">MapBasic</text><text text-anchor="middle" transform="translate(-106,153)rotate(59.99999955470795)scale(0.9999999865388264,0.9999999865388264)" style="font-size: 60px; font-family: pact; fill: rgb(189, 158, 57);">Python</text><text text-anchor="middle" transform="translate(138,164)rotate(-30.00000044529205)scale(0.9999999865388264,0.9999999865388264)" style="font-size: 57px; font-family: pact; fill: rgb(231, 186, 82);">ArcGis</text><text text-anchor="middle" transform="translate(252,75)rotate(59.99999955470795)scale(0.9999999865388264,0.9999999865388264)" style="font-size: 57px; font-family: pact; fill: rgb(231, 203, 148);">QGis</text><text text-anchor="middle" transform="translate(249,-88)rotate(-30.000000445292052)scale(0.9999999865388264,0.9999999865388264)" style="font-size: 57px; font-family: pact; fill: rgb(132, 60, 57);">MapInfo</text><text text-anchor="middle" transform="translate(-94,-109)rotate(59.99999955470795)scale(0.9999999865388264,0.9999999865388264)" style="font-size: 57px; font-family: pact; fill: rgb(173, 73, 74);">GeoBusiness</text><text text-anchor="middle" transform="translate(242,-26)rotate(-30.00000044529205)scale(0.9999999865388264,0.9999999865388264)" style="font-size: 51px; font-family: pact; fill: rgb(214, 97, 107);">PHP</text><text text-anchor="middle" transform="translate(204,222)rotate(0)scale(1,1)" style="font-size: 51px; font-family: pact; fill: rgb(231, 150, 156);">Javascript</text><text text-anchor="middle" transform="translate(-126,-84)rotate(59.999999554707955)scale(0.9999999865388264,0.9999999865388264)" style="font-size: 51px; font-family: pact; fill: rgb(123, 65, 115);">POSTGRESQL</text><text text-anchor="middle" transform="translate(-270,-117)rotate(0)scale(1,1)" style="font-size: 51px; font-family: pact; fill: rgb(165, 81, 148);">POSTGIS</text><text text-anchor="middle" transform="translate(302,173)rotate(0)scale(1,1)" style="font-size: 50px; font-family: pact; fill: rgb(206, 109, 189);">Géomatique</text><text text-anchor="middle" transform="translate(72,-45)rotate(-59.999999554707955)scale(0.9999999865388264,0.9999999865388264)" style="font-size: 34px; font-family: pact; fill: rgb(222, 158, 214);">google</text><text text-anchor="middle" transform="translate(-166,112)rotate(0)scale(1,1)" style="font-size: 30px; font-family: pact; fill: rgb(57, 59, 121);">Leaflet</text><text text-anchor="middle" transform="translate(-312,98)rotate(59.99999955470795)scale(0.9999999865388264,0.9999999865388264)" style="font-size: 30px; font-family: pact; fill: rgb(82, 84, 163);">Statistique</text><text text-anchor="middle" transform="translate(174,-93)rotate(-59.99999955470795)scale(0.9999999865388264,0.9999999865388264)" style="font-size: 30px; font-family: pact; fill: rgb(107, 110, 207);">SIG</text><text text-anchor="middle" transform="translate(278,29)rotate(59.99999955470795)scale(0.9999999865388264,0.9999999865388264)" style="font-size: 30px; font-family: pact; fill: rgb(156, 158, 222);">Géoserver</text><text text-anchor="middle" transform="translate(-114,219)rotate(30.000000445292052)scale(0.9999999865388264,0.9999999865388264)" style="font-size: 30px; font-family: pact; fill: rgb(99, 121, 57);">Géoportail</text><text text-anchor="middle" transform="translate(126,26)rotate(-59.99999955470795)scale(0.9999999865388264,0.9999999865388264)" style="font-size: 20px; font-family: pact; fill: rgb(140, 162, 82);">de</text><text text-anchor="middle" transform="translate(-154,-86)rotate(-59.99999955470795)scale(0.9999999865388264,0.9999999865388264)" style="font-size: 10px; font-family: pact; fill: rgb(181, 207, 107);">Maps</text><text text-anchor="middle" transform="translate(237,-8)rotate(-30.00000044529205)scale(0.9999999865388264,0.9999999865388264)" style="font-size: 10px; font-family: pact; fill: rgb(206, 219, 156);">APIs</text><text text-anchor="middle" transform="translate(8,-135)rotate(-30.00000044529205)scale(0.9999999865388264,0.9999999865388264)" style="font-size: 10px; font-family: pact; fill: rgb(140, 109, 49);">programmation</text><text text-anchor="middle" transform="translate(133,5)rotate(59.999999554707955)scale(0.9999999865388264,0.9999999865388264)" style="font-size: 10px; font-family: pact; fill: rgb(189, 158, 57);">bing</text></g></svg>