<svg width="960" height="600" version="1.1" xmlns="http://www.w3.org/2000/svg"><g></g><g transform="translate(480,300)scale(1,1)"><text text-anchor="middle" transform="translate(147,10)rotate(30.00000044529205)scale(0.9999999865388264,0.9999999865388264)" style="font-size: 100px; font-family: pact; fill: rgb(57, 59, 121);"></text><text text-anchor="middle" transform="translate(207,27)rotate(0)scale(1,1)" style="font-size: 91px; font-family: pact; fill: rgb(82, 84, 163);">ONF</text><text text-anchor="middle" transform="translate(-90,-52)rotate(-30.00000044529205)skewX(0)scale(0.9999999865388264,0.9999999865388264)" style="font-size: 68px; font-family: pact; fill: rgb(107, 110, 207);">Cmder</text><text text-anchor="middle" transform="translate(-168,-80)rotate(0)skewX(0)scale(1,1)" style="font-size: 68px; font-family: pact; fill: rgb(156, 158, 222);">FME</text><text text-anchor="middle" transform="translate(18,-87)rotate(30.000000445292052)scale(0.9999999865388264,0.9999999865388264)" style="font-size: 65px; font-family: pact; fill: rgb(99, 121, 57);">Esri</text><text text-anchor="middle" transform="translate(30,98)rotate(59.99999955470795)skewX(0)scale(0.9999999865388264,0.9999999865388264)" style="font-size: 65px; font-family: pact; fill: rgb(140, 162, 82);">AJAX</text><text text-anchor="middle" transform="translate(-110,55)rotate(30.00000044529205)scale(0.9999999865388264,0.9999999865388264)" style="font-size: 63px; font-family: pact; fill: rgb(181, 207, 107);">ArcGisPro</text><text text-anchor="middle" transform="translate(-148,85)rotate(30.00000044529205)skewX(0)scale(0.9999999865388264,0.9999999865388264)" style="font-size: 60px; font-family: pact; fill: rgb(206, 219, 156);">SIGWEB</text><text text-anchor="middle" transform="translate(150,144)rotate(-59.99999955470795)scale(0.9999999865388264,0.9999999865388264)" style="font-size: 59px; font-family: pact; fill: rgb(140, 109, 49);">MapBasic</text><text text-anchor="middle" transform="translate(-196,127)rotate(0)scale(1,1)" style="font-size: 59px; font-family: pact; fill: rgb(189, 158, 57);">Python</text><text text-anchor="middle" transform="translate(32,2)rotate(59.99999955470795)skewX(0)scale(0.9999999865388264,0.9999999865388264)" style="font-size: 57px; font-family: pact; fill: rgb(231, 186, 82);">ArcGis</text><text text-anchor="middle" transform="translate(218,146)rotate(-30.00000044529205)scale(0.9999999865388264,0.9999999865388264)" style="font-size: 57px; font-family: pact; fill: rgb(231, 203, 148);">QGis</text><text text-anchor="middle" transform="translate(-291,-33)rotate(0)skewX(0)scale(1,1)" style="font-size: 57px; font-family: pact; fill: rgb(132, 60, 57);">MapInfo</text><text text-anchor="middle" transform="translate(-357,63)rotate(59.99999955470795)skewX(0)scale(0.9999999865388264,0.9999999865388264)" style="font-size: 55px; font-family: pact; fill: rgb(214, 97, 107);">SQLITE</text><text text-anchor="middle" transform="translate(-72,16)rotate(59.999999554707955)scale(0.9999999865388264,0.9999999865388264)" style="font-size: 51px; font-family: pact; fill: rgb(123, 65, 115);">PHP</text><text text-anchor="middle" transform="translate(-321,-114)rotate(-30.000000445292045)skewX(0)scale(0.9999999865388264,0.9999999865388264)" style="font-size: 51px; font-family: pact; fill: rgb(165, 81, 148);">Javascript</text><text text-anchor="middle" transform="translate(307,167)rotate(-59.99999955470795)scale(0.9999999865388264,0.9999999865388264)" style="font-size: 51px; font-family: pact; fill: rgb(222, 158, 214);">POSTGIS</text><text text-anchor="middle" transform="translate(244,75)rotate(30.000000445292045)scale(0.9999999865388264,0.9999999865388264)" style="font-size: 33px; font-family: pact; fill: rgb(57, 59, 121);">google</text><text text-anchor="middle" transform="translate(112,37)rotate(59.99999955470795)scale(0.9999999865388264,0.9999999865388264)" style="font-size: 30px; font-family: pact; fill: rgb(82, 84, 163);">Leaflet</text><text text-anchor="middle" transform="translate(219,-68)rotate(30.00000044529205)scale(0.9999999865388264,0.9999999865388264)" style="font-size: 30px; font-family: pact; fill: rgb(107, 110, 207);">Statistique</text><text text-anchor="middle" transform="translate(105,83)rotate(-30.00000044529205)scale(0.9999999865388264,0.9999999865388264)" style="font-size: 30px; font-family: pact; fill: rgb(156, 158, 222);">SIG</text><text text-anchor="middle" transform="translate(-174,205)rotate(0)skewX(0)scale(1,1)" style="font-size: 30px; font-family: pact; fill: rgb(99, 121, 57);">Géoserver</text><text text-anchor="middle" transform="translate(12,220)rotate(-30.000000445292052)skewX(0)scale(0.9999999865388264,0.9999999865388264)" style="font-size: 30px; font-family: pact; fill: rgb(140, 162, 82);">Géoportail</text><text text-anchor="middle" transform="translate(229,-43)rotate(59.99999955470795)scale(0.9999999865388264,0.9999999865388264)" style="font-size: 20px; font-family: pact; fill: rgb(181, 207, 107);">de</text><text text-anchor="middle" transform="translate(163,-37)rotate(30.00000044529205)skewX(0)scale(0.9999999865388264,0.9999999865388264)" style="font-size: 10px; font-family: pact; fill: rgb(206, 219, 156);">Maps</text><text text-anchor="middle" transform="translate(200,-134)rotate(-59.99999955470795)scale(0.9999999865388264,0.9999999865388264)" style="font-size: 10px; font-family: pact; fill: rgb(140, 109, 49);">APIs</text><text text-anchor="middle" transform="translate(-247,-127)rotate(0)skewX(0)scale(1,1)" style="font-size: 10px; font-family: pact; fill: rgb(189, 158, 57);">programmation</text><text text-anchor="middle" transform="translate(-220,-25)rotate(-30.00000044529205)scale(0.9999999865388264,0.9999999865388264)" style="font-size: 10px; font-family: pact; fill: rgb(231, 186, 82);">bing</text><text text-anchor="middle" transform="translate(336,39)rotate(59.99999955470795)skewX(0)scale(0.9999999865388264,0.9999999865388264)" style="font-size: 57px; font-family: pact; fill: rgb(173, 73, 74);">GeoBusiness</text><text text-anchor="middle" transform="translate(166,-137)rotate(-59.99999955470795)scale(0.9999999865388264,0.9999999865388264)" style="font-size: 51px; font-family: pact; fill: rgb(206, 109, 189);">POSTGRESQL</text><text text-anchor="middle" transform="translate(-11,-163)rotate(30.00000044529205)scale(0.9999999865388264,0.9999999865388264)" style="font-size: 50px; font-family: pact; fill: rgb(231, 203, 148);">Géomatique</text><text text-anchor="middle" transform="translate(-111,181)rotate(0)" style="font-size: 52px; font-family: pact; fill: rgb(231, 150, 156);">GEOPANDAS</text></g></svg>