<svg width="960" height="600" version="1.1" xmlns="http://www.w3.org/2000/svg"><g></g><g transform="translate(480,300)scale(1.0041841268539429,1.0041841268539429)"><text text-anchor="middle" transform="translate(-159,63)rotate(-30.00000044529205)scale(0.9999999865388264,0.9999999865388264)" style="font-size: 100px; font-family: pact; fill: rgb(57, 59, 121);"></text><text text-anchor="middle" transform="translate(96,37)rotate(30.00000044529205)scale(0.9999999865388264,0.9999999865388264)" style="font-size: 91px; font-family: pact; fill: rgb(82, 84, 163);">ONF</text><text text-anchor="middle" transform="translate(69,-118)rotate(-30.00000044529205)scale(0.9999999865388264,0.9999999865388264)" style="font-size: 68px; font-family: pact; fill: rgb(107, 110, 207);">Cmder</text><text text-anchor="middle" transform="translate(160,-162)rotate(30.00000044529205)scale(0.9999999865388264,0.9999999865388264)" style="font-size: 68px; font-family: pact; fill: rgb(156, 158, 222);">FME</text><text text-anchor="middle" transform="translate(129,-58)rotate(30.00000044529205)scale(0.9999999865388264,0.9999999865388264)" style="font-size: 65px; font-family: pact; fill: rgb(99, 121, 57);">Esri</text><text text-anchor="middle" transform="translate(70,116)rotate(-59.99999955470795)scale(0.9999999865388264,0.9999999865388264)" style="font-size: 65px; font-family: pact; fill: rgb(140, 162, 82);">AJAX</text><text text-anchor="middle" transform="translate(-44,-42)rotate(59.99999955470795)scale(0.9999999865388264,0.9999999865388264)" style="font-size: 63px; font-family: pact; fill: rgb(181, 207, 107);">ArcGisPro</text><text text-anchor="middle" transform="translate(-159,106)rotate(0)scale(1,1)" style="font-size: 60px; font-family: pact; fill: rgb(206, 219, 156);">SIGWEB</text><text text-anchor="middle" transform="translate(-71,29)rotate(59.99999955470795)scale(0.9999999865388264,0.9999999865388264)" style="font-size: 59px; font-family: pact; fill: rgb(140, 109, 49);">MapBasic</text><text text-anchor="middle" transform="translate(194,-77)rotate(30.00000044529205)scale(0.9999999865388264,0.9999999865388264)" style="font-size: 59px; font-family: pact; fill: rgb(189, 158, 57);">Python</text><text text-anchor="middle" transform="translate(139,134)rotate(-30.000000445292052)scale(0.9999999865388264,0.9999999865388264)" style="font-size: 57px; font-family: pact; fill: rgb(231, 186, 82);">ArcGis</text><text text-anchor="middle" transform="translate(316,-42)rotate(-59.99999955470795)scale(0.9999999865388264,0.9999999865388264)" style="font-size: 57px; font-family: pact; fill: rgb(231, 203, 148);">QGis</text><text text-anchor="middle" transform="translate(250,146)rotate(59.99999955470795)scale(0.9999999865388264,0.9999999865388264)" style="font-size: 57px; font-family: pact; fill: rgb(132, 60, 57);">MapInfo</text><text text-anchor="middle" transform="translate(-167,-18)rotate(59.99999955470795)scale(0.9999999865388264,0.9999999865388264)" style="font-size: 55px; font-family: pact; fill: rgb(214, 97, 107);">SQLITE</text><text text-anchor="middle" transform="translate(204,6)rotate(30.00000044529205)scale(0.9999999865388264,0.9999999865388264)" style="font-size: 51px; font-family: pact; fill: rgb(123, 65, 115);">PHP</text><text text-anchor="middle" transform="translate(35,-195)rotate(-30.00000044529205)scale(0.9999999865388264,0.9999999865388264)" style="font-size: 51px; font-family: pact; fill: rgb(165, 81, 148);">Javascript</text><text text-anchor="middle" transform="translate(-146,144)rotate(0)scale(1,1)" style="font-size: 51px; font-family: pact; fill: rgb(222, 158, 214);">POSTGIS</text><text text-anchor="middle" transform="translate(294,48)rotate(-30.00000044529205)scale(0.9999999865388264,0.9999999865388264)" style="font-size: 33px; font-family: pact; fill: rgb(57, 59, 121);">google</text><text text-anchor="middle" transform="translate(43,-73)rotate(-30.000000445292052)scale(0.9999999865388264,0.9999999865388264)" style="font-size: 30px; font-family: pact; fill: rgb(82, 84, 163);">Leaflet</text><text text-anchor="middle" transform="translate(323,-132)rotate(0)scale(1,1)" style="font-size: 30px; font-family: pact; fill: rgb(107, 110, 207);">Statistique</text><text text-anchor="middle" transform="translate(117,96)rotate(-30.00000044529205)scale(0.9999999865388264,0.9999999865388264)" style="font-size: 30px; font-family: pact; fill: rgb(156, 158, 222);">SIG</text><text text-anchor="middle" transform="translate(163,148)rotate(-30.00000044529205)scale(0.9999999865388264,0.9999999865388264)" style="font-size: 30px; font-family: pact; fill: rgb(99, 121, 57);">Géoserver</text><text text-anchor="middle" transform="translate(-166,190)rotate(-30.00000044529205)scale(0.9999999865388264,0.9999999865388264)" style="font-size: 30px; font-family: pact; fill: rgb(140, 162, 82);">Géoportail</text><text text-anchor="middle" transform="translate(253,47)rotate(-59.99999955470795)scale(0.9999999865388264,0.9999999865388264)" style="font-size: 20px; font-family: pact; fill: rgb(181, 207, 107);">de</text><text text-anchor="middle" transform="translate(-23,-147)rotate(0)scale(1,1)" style="font-size: 10px; font-family: pact; fill: rgb(206, 219, 156);">Maps</text><text text-anchor="middle" transform="translate(-125,-85)rotate(0)scale(1,1)" style="font-size: 10px; font-family: pact; fill: rgb(140, 109, 49);">APIs</text><text text-anchor="middle" transform="translate(-177,40)rotate(-30.00000044529205)scale(0.9999999865388264,0.9999999865388264)" style="font-size: 10px; font-family: pact; fill: rgb(189, 158, 57);">programmation</text><text text-anchor="middle" transform="translate(-165,51)rotate(59.999999554707955)scale(0.9999999865388264,0.9999999865388264)" style="font-size: 10px; font-family: pact; fill: rgb(231, 186, 82);">bing</text><text text-anchor="middle" transform="translate(-113,-160)rotate(-30.000000445292052)scale(0.9999999865388264,0.9999999865388264)" style="font-size: 57px; font-family: pact; fill: rgb(173, 73, 74);">GeoBusiness</text><text text-anchor="middle" transform="translate(280,-255)rotate(0)scale(1,1)" style="font-size: 51px; font-family: pact; fill: rgb(206, 109, 189);">POSTGRESQL</text><text text-anchor="middle" transform="translate(318,-215)rotate(0)scale(1,1)" style="font-size: 50px; font-family: pact; fill: rgb(231, 203, 148);">Géomatique</text><text text-anchor="middle" transform="translate(-154,-190)rotate(-30.00000044529205)scale(0.9999999865388264,0.9999999865388264)" style="font-size: 52px; font-family: pact; fill: rgb(231, 150, 156);">GEOPANDAS</text></g></svg>