<svg width="960" height="600" version="1.1" xmlns="http://www.w3.org/2000/svg"><g></g><g transform="translate(480,300)scale(1.0147991180419922,1.0147991180419922)"><text text-anchor="middle" transform="translate(-73,93)rotate(-30.00000044529205)scale(0.9999999865388264,0.9999999865388264)" style="font-size: 100px; font-family: Impact; fill: rgb(57, 59, 121);"></text><text text-anchor="middle" transform="translate(-157,72)rotate(-30.000000445292052)scale(0.9999999865388264,0.9999999865388264)" style="font-size: 91px; font-family: Impact; fill: rgb(82, 84, 163);">ONF</text><text text-anchor="middle" transform="translate(149,59)rotate(0)scale(1,1)" style="font-size: 68px; font-family: Impact; fill: rgb(107, 110, 207);">Cmder</text><text text-anchor="middle" transform="translate(-188,156)rotate(0)scale(1,1)" style="font-size: 68px; font-family: Impact; fill: rgb(156, 158, 222);">FME</text><text text-anchor="middle" transform="translate(11,59)rotate(59.99999955470795)scale(0.9999999865388264,0.9999999865388264)" style="font-size: 65px; font-family: Impact; fill: rgb(99, 121, 57);">Esri</text><text text-anchor="middle" transform="translate(72,143)rotate(-30.00000044529205)scale(0.9999999865388264,0.9999999865388264)" style="font-size: 65px; font-family: Impact; fill: rgb(140, 162, 82);">AJAX</text><text text-anchor="middle" transform="translate(146,-93)rotate(59.99999955470795)scale(0.9999999865388264,0.9999999865388264)" style="font-size: 63px; font-family: Impact; fill: rgb(181, 207, 107);">ArcGisPro</text><text text-anchor="middle" transform="translate(-32,-10)rotate(0)scale(1,1)" style="font-size: 60px; font-family: Impact; fill: rgb(206, 219, 156);">SIGWEB</text><text text-anchor="middle" transform="translate(-164,-133)rotate(30.00000044529205)scale(0.9999999865388264,0.9999999865388264)" style="font-size: 59px; font-family: Impact; fill: rgb(140, 109, 49);">MapBasic</text><text text-anchor="middle" transform="translate(267,90)rotate(-59.99999955470795)scale(0.9999999865388264,0.9999999865388264)" style="font-size: 59px; font-family: Impact; fill: rgb(189, 158, 57);">Python</text><text text-anchor="middle" transform="translate(-194,-59)rotate(-59.999999554707955)scale(0.9999999865388264,0.9999999865388264)" style="font-size: 57px; font-family: Impact; fill: rgb(231, 186, 82);">ArcGis</text><text text-anchor="middle" transform="translate(-9,116)rotate(-59.99999955470795)scale(0.9999999865388264,0.9999999865388264)" style="font-size: 57px; font-family: Impact; fill: rgb(231, 203, 148);">QGis</text><text text-anchor="middle" transform="translate(-285,-87)rotate(-30.000000445292052)scale(0.9999999865388264,0.9999999865388264)" style="font-size: 57px; font-family: Impact; fill: rgb(132, 60, 57);">MapInfo</text><text text-anchor="middle" transform="translate(30,-100)rotate(30.000000445292052)scale(0.9999999865388264,0.9999999865388264)" style="font-size: 55px; font-family: Impact; fill: rgb(214, 97, 107);">SQLITE</text><text text-anchor="middle" transform="translate(161,205)rotate(0)scale(1,1)" style="font-size: 52px; font-family: Impact; fill: rgb(231, 150, 156);">GEOPANDAS</text><text text-anchor="middle" transform="translate(-128,-55)rotate(-59.99999955470795)scale(0.9999999865388264,0.9999999865388264)" style="font-size: 51px; font-family: Impact; fill: rgb(123, 65, 115);">PHP</text><text text-anchor="middle" transform="translate(207,-100)rotate(59.99999955470795)scale(0.9999999865388264,0.9999999865388264)" style="font-size: 51px; font-family: Impact; fill: rgb(165, 81, 148);">Javascript</text><text text-anchor="middle" transform="translate(-62,-193)rotate(0)scale(1,1)" style="font-size: 51px; font-family: Impact; fill: rgb(206, 109, 189);">POSTGRESQL</text><text text-anchor="middle" transform="translate(-317,78)rotate(59.99999955470795)scale(0.9999999865388264,0.9999999865388264)" style="font-size: 51px; font-family: Impact; fill: rgb(222, 158, 214);">POSTGIS</text><text text-anchor="middle" transform="translate(-66,30)rotate(0)scale(1,1)" style="font-size: 33px; font-family: Impact; fill: rgb(57, 59, 121);">google</text><text text-anchor="middle" transform="translate(-93,86)rotate(0)scale(1,1)" style="font-size: 30px; font-family: Impact; fill: rgb(82, 84, 163);">Leaflet</text><text text-anchor="middle" transform="translate(-67,184)" style="font-size: 30px; font-family: Impact; fill: rgb(107, 110, 207);">Statistique</text><text text-anchor="middle" transform="translate(145,128)rotate(30.00000044529205)scale(0.9999999865388264,0.9999999865388264)" style="font-size: 30px; font-family: Impact; fill: rgb(156, 158, 222);">SIG</text><text text-anchor="middle" transform="translate(-285,-54)rotate(-30.00000044529205)scale(0.9999999865388264,0.9999999865388264)" style="font-size: 30px; font-family: Impact; fill: rgb(99, 121, 57);">Géoserver</text><text text-anchor="middle" transform="translate(-324,-184)rotate(30.00000044529205)scale(0.9999999865388264,0.9999999865388264)" style="font-size: 30px; font-family: Impact; fill: rgb(140, 162, 82);">Géoportail</text><text text-anchor="middle" transform="translate(59,-62)rotate(0)scale(1,1)" style="font-size: 20px; font-family: Impact; fill: rgb(181, 207, 107);">de</text><text text-anchor="middle" transform="translate(-169,-15)rotate(-59.99999955470795)scale(0.9999999865388264,0.9999999865388264)" style="font-size: 10px; font-family: Impact; fill: rgb(206, 219, 156);">Maps</text><text text-anchor="middle" transform="translate(-43,-141)rotate(30.00000044529205)scale(0.9999999865388264,0.9999999865388264)" style="font-size: 10px; font-family: Impact; fill: rgb(140, 109, 49);">APIs</text><text text-anchor="middle" transform="translate(132,-39)rotate(-30.00000044529205)scale(0.9999999865388264,0.9999999865388264)" style="font-size: 10px; font-family: Impact; fill: rgb(189, 158, 57);">programmation</text><text text-anchor="middle" transform="translate(156,3)rotate(-59.99999955470795)scale(0.9999999865388264,0.9999999865388264)" style="font-size: 10px; font-family: Impact; fill: rgb(231, 186, 82);">bing</text><text text-anchor="middle" transform="translate(-345,129)rotate(60)" style="font-size: 50px; font-family: Impact; fill: rgb(231, 203, 148);">Géomatique</text></g></svg>