<svg width="960" height="600" version="1.1" xmlns="http://www.w3.org/2000/svg"><g></g><g transform="translate(480,300)scale(1,1)"><text text-anchor="middle" transform="translate(123,-126)rotate(61.00000107336867)skewX(3.180554659118669e-15)scale(1.0000000070254562,1.0000000070254562)" style="font-size: 100px; font-family: pact; fill: rgb(57, 59, 121);"></text><text text-anchor="middle" transform="translate(160,-14)rotate(29.750000174544745)skewX(0)scale(0.9999999988832351,0.9999999988832351)" style="font-size: 91px; font-family: pact; fill: rgb(82, 84, 163);">ONF</text><text text-anchor="middle" transform="translate(256,-157)rotate(-63.999999965998995)skewX(-3.1805546498063074e-15)scale(1.0000000099533612,1.0000000099533612)" style="font-size: 68px; font-family: pact; fill: rgb(107, 110, 207);">Cmder</text><text text-anchor="middle" transform="translate(152,114)rotate(-63.999999965998995)skewX(-3.1805546498063074e-15)scale(1.0000000099533612,1.0000000099533612)" style="font-size: 68px; font-family: pact; fill: rgb(156, 158, 222);">FME</text><text text-anchor="middle" transform="translate(229,68)rotate(-1.4999999762315497)skewX(-1.9878466601839103e-16)scale(1.0000000079134816,1.0000000079134816)" style="font-size: 65px; font-family: pact; fill: rgb(99, 121, 57);">Esri</text><text text-anchor="middle" transform="translate(18,-104)rotate(29.750000174544738)skewX(0)scale(0.9999999988832351,0.9999999988832351)" style="font-size: 65px; font-family: pact; fill: rgb(140, 162, 82);">AJAX</text><text text-anchor="middle" transform="translate(-231,-128)rotate(61.000001073368665)skewX(3.180554659118669e-15)scale(1.0000000070254562,1.0000000070254562)" style="font-size: 63px; font-family: pact; fill: rgb(181, 207, 107);">ArcGisPro</text><text text-anchor="middle" transform="translate(68,70)rotate(-32.750001615124305)skewX(0)scale(1.0000000050258624,1.0000000050258624)" style="font-size: 60px; font-family: pact; fill: rgb(206, 219, 156);">SIGWEB</text><text text-anchor="middle" transform="translate(-164,123)rotate(-1.4999999762315497)skewX(-1.9878466601839103e-16)scale(1.0000000079134816,1.0000000079134816)" style="font-size: 59px; font-family: pact; fill: rgb(140, 109, 49);">MapBasic</text><text text-anchor="middle" transform="translate(-93,-13)rotate(-32.750001615124305)skewX(0)scale(1.0000000050258624,1.0000000050258624)" style="font-size: 59px; font-family: pact; fill: rgb(189, 158, 57);">Python</text><text text-anchor="middle" transform="translate(-309,142)rotate(61.000001073368665)skewX(3.180554659118669e-15)scale(1.0000000070254562,1.0000000070254562)" style="font-size: 57px; font-family: pact; fill: rgb(231, 186, 82);">ArcGis</text><text text-anchor="middle" transform="translate(-118,-139)rotate(-32.7500016151243)skewX(0)scale(1.0000000050258624,1.0000000050258624)" style="font-size: 57px; font-family: pact; fill: rgb(231, 203, 148);">QGis</text><text text-anchor="middle" transform="translate(-22,172)rotate(-1.4999999762315532)skewX(-1.98784666018391e-16)scale(1.0000000079134816,1.0000000079134816)" style="font-size: 57px; font-family: pact; fill: rgb(132, 60, 57);">MapInfo</text><text text-anchor="middle" transform="translate(-31,-78)rotate(29.750000174544745)scale(0.9999999988832351,0.9999999988832351)" style="font-size: 55px; font-family: pact; fill: rgb(214, 97, 107);">SQLITE</text><text text-anchor="middle" transform="translate(5,26)rotate(-63.999999965998995)skewX(-3.1805546498063074e-15)scale(1.0000000099533612,1.0000000099533612)" style="font-size: 51px; font-family: pact; fill: rgb(123, 65, 115);">PHP</text><text text-anchor="middle" transform="translate(-127,-196)rotate(-1.4999999762315497)skewX(-1.9878466601839103e-16)scale(1.0000000079134816,1.0000000079134816)" style="font-size: 51px; font-family: pact; fill: rgb(165, 81, 148);">Javascript</text><text text-anchor="middle" transform="translate(20,222)rotate(-1.4999999762315532)skewX(-1.98784666018391e-16)scale(1.0000000079134816,1.0000000079134816)" style="font-size: 51px; font-family: pact; fill: rgb(222, 158, 214);">POSTGIS</text><text text-anchor="middle" transform="translate(-112,-69)rotate(-1.4999999762315497)skewX(-1.9878466601839103e-16)scale(1.0000000079134816,1.0000000079134816)" style="font-size: 33px; font-family: pact; fill: rgb(57, 59, 121);">google</text><text text-anchor="middle" transform="translate(-63,4)rotate(-32.750001615124305)skewX(0)scale(1.0000000050258624,1.0000000050258624)" style="font-size: 30px; font-family: pact; fill: rgb(82, 84, 163);">Leaflet</text><text text-anchor="middle" transform="translate(73,-135)rotate(29.750000174544745)scale(0.9999999988832351,0.9999999988832351)" style="font-size: 30px; font-family: pact; fill: rgb(107, 110, 207);">Statistique</text><text text-anchor="middle" transform="translate(-143,55)rotate(29.750000174544745)skewX(0)scale(0.9999999988832351,0.9999999988832351)" style="font-size: 30px; font-family: pact; fill: rgb(156, 158, 222);">SIG</text><text text-anchor="middle" transform="translate(-186,169)rotate(-32.750001615124305)skewX(0)scale(1.0000000050258624,1.0000000050258624)" style="font-size: 30px; font-family: pact; fill: rgb(99, 121, 57);">Géoserver</text><text text-anchor="middle" transform="translate(-325,-21)rotate(-32.7500016151243)scale(1.0000000050258624,1.0000000050258624)" style="font-size: 30px; font-family: pact; fill: rgb(140, 162, 82);">Géoportail</text><text text-anchor="middle" transform="translate(-27,75)rotate(-32.7500016151243)skewX(0)scale(1.0000000050258624,1.0000000050258624)" style="font-size: 20px; font-family: pact; fill: rgb(181, 207, 107);">de</text><text text-anchor="middle" transform="translate(-137,-46)rotate(61.000001073368665)skewX(3.180554659118669e-15)scale(1.0000000070254562,1.0000000070254562)" style="font-size: 10px; font-family: pact; fill: rgb(206, 219, 156);">Maps</text><text text-anchor="middle" transform="translate(-80,30)rotate(-1.4999999762315532)skewX(-1.98784666018391e-16)scale(1.0000000079134816,1.0000000079134816)" style="font-size: 10px; font-family: pact; fill: rgb(140, 109, 49);">APIs</text><text text-anchor="middle" transform="translate(11,-40)rotate(29.750000174544745)scale(0.9999999988832351,0.9999999988832351)" style="font-size: 10px; font-family: pact; fill: rgb(189, 158, 57);">programmation</text><text text-anchor="middle" transform="translate(222,149)rotate(-32.750001615124305)skewX(0)scale(1.0000000050258624,1.0000000050258624)" style="font-size: 10px; font-family: pact; fill: rgb(231, 186, 82);">bing</text><text text-anchor="middle" transform="translate(352,-1)rotate(-63.999999965998995)skewX(-3.1805546498063074e-15)scale(1.0000000099533612,1.0000000099533612)" style="font-size: 57px; font-family: pact; fill: rgb(173, 73, 74);">GeoBusiness</text><text text-anchor="middle" transform="translate(68,-180)rotate(29.750000174544738)skewX(0)scale(0.9999999988832351,0.9999999988832351)" style="font-size: 50px; font-family: pact; fill: rgb(231, 203, 148);">Géomatique</text><text text-anchor="middle" transform="translate(281,193)rotate(-1.4999999762315497)skewX(-1.9878466601839103e-16)scale(1.0000000079134816,1.0000000079134816)" style="font-size: 52px; font-family: pact; fill: rgb(231, 150, 156);">GEOPANDAS</text><text text-anchor="middle" transform="translate(-265,-57)rotate(61.000001073368665)skewX(3.180554659118669e-15)scale(1.0000000070254562,1.0000000070254562)" style="font-size: 51px; font-family: pact; fill: rgb(206, 109, 189);">POSTGRESQL</text></g></svg>